<?xml version="1.0" encoding="UTF-8" standalone="no"?>
<svg width="820px" height="361px" viewBox="0 0 820 361" version="1.1" xmlns="http://www.w3.org/2000/svg" xmlns:xlink="http://www.w3.org/1999/xlink">
    <!-- Generator: Sketch 40.3 (33839) - http://www.bohemiancoding.com/sketch -->
    <title>Group 2@2x</title>
    <desc>Created with Sketch.</desc>
    <defs>
        <linearGradient x1="80.5972451%" y1="10.9847862%" x2="65.051398%" y2="63.9268092%" id="linearGradient-1">
            <stop stop-color="#30B068" offset="0%"></stop>
            <stop stop-color="#35C071" offset="100%"></stop>
        </linearGradient>
    </defs>
    <g id="Products" stroke="none" stroke-width="1" fill="none" fill-rule="evenodd">
        <g id="Landing---SEO" transform="translate(-440.000000, -179.000000)">
            <g id="TOP">
                <g id="Intro">
                    <g id="Group-2" transform="translate(440.000000, 179.000000)">
                        <path d="M667.714286,512.385651 L158.142857,512.5 L152.285714,512.5 C67.6596664,509.330794 0,440.149729 0,355.255682 C0,290.053979 39.9110588,234.121044 96.7668545,210.29268 C109.899458,149.99893 163.858932,104.829545 228.428571,104.829545 C247.537561,104.829545 265.717282,108.785606 282.184532,115.918971 C318.346185,47.0281741 390.863983,0 474.428571,0 C594.116572,0 691.142857,96.474999 691.142857,215.482955 C691.142857,217.774369 691.106887,220.05743 691.035477,222.33161 C763.673052,230.915119 820,292.368703 820,366.903409 C820,447.31419 754.4417,512.5 673.571429,512.5 C671.609811,512.5 669.657203,512.461647 667.714286,512.385651 Z" id="Cloud" fill="#35C071"></path>
                        <ellipse id="Oval" fill="url(#linearGradient-1)" cx="473.165266" cy="218.207283" rx="218.207283" ry="218.207283"></ellipse>
                        <path d="M224.52381,364.061625 C296.514204,364.061625 354.87395,305.701879 354.87395,233.711485 C354.87395,161.72109 296.514204,103.361345 224.52381,103.361345 C152.533415,103.361345 94.1736695,161.72109 94.1736695,233.711485 C94.1736695,305.701879 152.533415,364.061625 224.52381,364.061625 Z" id="Oval" fill="#3ACE7A"></path>
                    </g>
                </g>
            </g>
        </g>
    </g>
</svg>