<?xml version="1.0" encoding="UTF-8" standalone="no"?>
<svg width="8px" height="5px" viewBox="0 0 8 5" version="1.1" xmlns="http://www.w3.org/2000/svg" xmlns:xlink="http://www.w3.org/1999/xlink">
    <!-- Generator: Sketch 40.3 (33839) - http://www.bohemiancoding.com/sketch -->
    <title>arrow-icon copy 2</title>
    <desc>Created with Sketch.</desc>
    <defs></defs>
    <g id="Blocks" stroke="none" stroke-width="1" fill="none" fill-rule="evenodd">
        <g id="Blocks-" transform="translate(-735.000000, -6747.000000)" fill="#646B73">
            <g id="BLOCKS" transform="translate(105.417969, 596.000000)">
                <g id="Block-12" transform="translate(33.582031, 5835.000000)">
                    <g id="Growing-teams" transform="translate(337.000000, 128.000000)">
                        <g id="Keywords" transform="translate(2.000000, 149.000000)">
                            <path d="M260.369129,43.6341012 L257.213251,40.3009961 L257.213251,40.3009961 C256.928916,39.9985511 256.928916,39.525792 257.213251,39.2233469 C257.344661,39.0809875 257.529189,39.0000795 257.722461,39.0000795 C257.915734,39.0000795 258.100262,39.0809875 258.231672,39.2233469 L260.99972,42.141991 L263.7631,39.2238484 C263.895321,39.0810913 264.080692,39 264.274807,39 C264.468921,39 264.654292,39.0810913 264.786514,39.2238484 C265.071162,39.5263614 265.071162,39.999486 264.786514,40.3019991 L261.629125,43.6362178 C261.600627,43.6854064 261.566441,43.7322023 261.526566,43.7756502 C261.394344,43.9184072 261.208974,43.9994985 261.014859,43.9994985 C261.013753,43.9994985 261.012647,43.9994959 261.011542,43.9994906 C261.002684,43.9998296 260.993804,44 260.984905,44 C260.790791,44 260.60542,43.9189087 260.473198,43.7761516 C260.432617,43.7319336 260.397927,43.6842478 260.369129,43.6341012 Z" id="arrow-icon-copy-2"></path>
                        </g>
                    </g>
                </g>
            </g>
        </g>
    </g>
</svg>